<?xml version="1.0" encoding="UTF-8"?>
<svg xmlns="http://www.w3.org/2000/svg" xmlns:xlink="http://www.w3.org/1999/xlink" width="30px" height="30px" viewBox="0 0 30 30" version="1.1">
<g id="surface1">
<path style=" stroke:none;fill-rule:evenodd;fill:rgb(98.823529%,63.921569%,14.901961%);fill-opacity:1;" d="M 15 30 C 23.285156 30 30 23.285156 30 15 C 30 6.714844 23.285156 0 15 0 C 6.714844 0 0 6.714844 0 15 C 0 23.285156 6.714844 30 15 30 Z M 12.660156 21.898438 C 12.972656 22.277344 13.347656 22.46875 13.789062 22.46875 C 14.28125 22.46875 14.660156 22.265625 14.925781 21.863281 L 22.695312 9.84375 C 22.789062 9.699219 22.859375 9.5625 22.90625 9.429688 C 22.949219 9.296875 22.96875 9.164062 22.96875 9.03125 C 22.96875 8.703125 22.863281 8.433594 22.648438 8.226562 C 22.429688 8.015625 22.15625 7.910156 21.816406 7.910156 C 21.585938 7.910156 21.390625 7.957031 21.234375 8.050781 C 21.082031 8.140625 20.929688 8.292969 20.789062 8.515625 L 13.757812 19.65625 L 10.15625 15.089844 C 9.894531 14.761719 9.574219 14.601562 9.191406 14.601562 C 8.855469 14.601562 8.574219 14.707031 8.351562 14.921875 C 8.132812 15.140625 8.019531 15.414062 8.019531 15.746094 C 8.019531 15.894531 8.046875 16.039062 8.09375 16.175781 C 8.152344 16.316406 8.238281 16.457031 8.363281 16.601562 Z M 12.660156 21.898438 "/>
</g>
</svg>
