<svg width="30" height="30" viewBox="0 0 30 30" fill="none" xmlns="http://www.w3.org/2000/svg">
<path d="M14.5011 0.686253C14.0586 0.812675 13.581 1.10766 13.3703 1.38157C13.272 1.50799 12.4011 3.21468 11.4319 5.1742C9.80243 8.4752 9.65494 8.74911 9.43721 8.84041C9.31079 8.90362 7.53387 9.18456 5.48304 9.47954C3.43924 9.77452 1.64827 10.0414 1.51483 10.0765C0.545599 10.3294 -0.163763 11.4672 0.0328916 12.4504C0.0750319 12.6682 0.187406 12.9702 0.27871 13.1317C0.377038 13.2932 1.71148 14.6558 3.24961 16.1518C4.78773 17.6548 6.08003 18.9471 6.1292 19.0243C6.17836 19.1086 6.21348 19.2491 6.2205 19.3404C6.2205 19.4387 5.93254 21.1665 5.5884 23.1822C5.23723 25.2049 4.95629 27.038 4.95629 27.2698C4.95629 27.8176 5.11783 28.2601 5.45495 28.6464C5.94659 29.2012 6.75428 29.4751 7.44257 29.3206C7.64625 29.2785 9.21247 28.4919 11.2703 27.4103C13.89 26.0267 14.8171 25.5701 14.9997 25.5701C15.1894 25.5701 16.0884 26.0126 18.7432 27.4103C22.5218 29.4049 22.6833 29.4681 23.3786 29.3206C24.383 29.1099 25.0432 28.2952 25.0432 27.2698C25.0432 27.0521 24.7623 25.2119 24.4111 23.1892C24.0669 21.1665 23.779 19.4317 23.779 19.3404C23.786 19.2491 23.8211 19.1086 23.8703 19.0314C23.9195 18.9471 25.2118 17.6548 26.7499 16.1518C28.288 14.6558 29.6224 13.2932 29.7208 13.1317C29.8121 12.9702 29.9244 12.6682 29.9666 12.4504C30.1632 11.4742 29.4679 10.3504 28.5057 10.0836C28.3793 10.0484 26.5883 9.77452 24.5305 9.47954C22.4797 9.18456 20.6887 8.8966 20.5623 8.84041C20.3445 8.74911 20.1971 8.4752 18.5325 5.11802C17.2262 2.47722 16.6713 1.43073 16.4887 1.24813C15.9971 0.749464 15.1402 0.510668 14.5011 0.686253Z" fill="#FCA326"/>
</svg>
