<?xml version="1.0" encoding="UTF-8"?>
<svg xmlns="http://www.w3.org/2000/svg" xmlns:xlink="http://www.w3.org/1999/xlink" width="24px" height="24px" viewBox="0 0 24 24" version="1.1">
<g id="surface1">
<path style="fill:none;stroke-width:5;stroke-linecap:butt;stroke-linejoin:miter;stroke:rgb(52.156863%,52.156863%,52.156863%);stroke-opacity:1;stroke-miterlimit:4;" d="M 78.938802 18.424479 C 75 28.190104 72.03776 32.682292 66.145833 36.588542 C 62.207031 39.160156 58.691406 40.78776 54.492188 41.471354 C 50.358073 42.122396 45.800781 41.829427 39.811198 40.917969 C 31.640625 39.648438 26.627604 40.397135 23.177083 42.708333 C 19.303385 45.279948 15.234375 50.813802 13.183594 56.608073 L 13.183594 56.640625 C 12.66276 58.072917 12.402344 58.854167 12.272135 59.635417 C 12.141927 60.449219 12.109375 61.295573 12.109375 62.890625 C 12.141927 65.397135 12.5 67.317708 13.476563 69.433594 C 14.453125 71.679688 16.178385 74.186198 19.010417 77.766927 C 22.460938 82.063802 24.804688 85.546875 26.269531 89.029948 C 27.766927 92.578125 28.28776 95.963542 28.28776 100 C 28.28776 103.808594 27.799479 107.03125 26.464844 110.351563 C 25.16276 113.671875 23.046875 116.927083 20.019531 120.898438 C 16.276042 125.813802 14.355469 128.548177 13.313802 130.729167 C 12.369792 132.747396 12.141927 134.309896 12.109375 137.109375 C 12.109375 138.671875 12.141927 139.550781 12.272135 140.332031 C 12.402344 141.113281 12.630208 141.927083 13.151042 143.294271 C 14.615885 147.395833 16.829427 151.139323 19.433594 153.938802 L 19.433594 153.971354 C 22.070312 156.738281 24.511719 158.333333 27.473958 159.114583 C 30.533854 159.895833 34.375 159.895833 39.811198 159.049479 C 45.833333 158.138021 50.423177 157.845052 54.52474 158.528646 C 58.691406 159.21224 62.207031 160.839844 66.145833 163.411458 C 72.03776 167.317708 75 171.809896 78.938802 181.575521 C 82.226562 189.84375 84.667969 192.903646 88.541667 194.921875 L 88.541667 194.954427 L 88.574219 194.954427 C 91.471354 196.516927 95.47526 197.395833 99.609375 197.460938 C 103.776042 197.49349 107.8125 196.744792 110.807292 195.247396 C 113.085938 194.108073 114.746094 192.80599 116.276042 190.852865 C 117.838542 188.802083 119.303385 185.9375 121.09375 181.575521 L 121.09375 181.542969 C 123.828125 174.804688 125.292969 171.842448 127.799479 168.815104 C 131.575521 164.127604 138.574219 159.960938 144.791667 158.658854 C 148.60026 157.845052 153.450521 158.007812 160.15625 159.049479 C 165.625 159.895833 169.433594 159.895833 172.49349 159.114583 C 175.455729 158.333333 177.929688 156.738281 180.566406 153.938802 C 183.203125 151.139323 185.449219 147.395833 186.848958 143.326823 C 187.33724 141.959635 187.565104 141.145833 187.695312 140.332031 C 187.825521 139.518229 187.890625 138.639323 187.890625 137.109375 C 187.858073 134.635417 187.5 132.714844 186.523438 130.566406 C 185.514323 128.352865 183.821615 125.813802 180.989583 122.233073 C 177.539062 117.936198 175.195312 114.453125 173.730469 110.970052 C 172.233073 107.454427 171.71224 104.036458 171.71224 100 C 171.71224 95.963542 172.233073 92.545573 173.730469 89.029948 C 175.195312 85.546875 177.539062 82.063802 180.989583 77.766927 C 183.821615 74.186198 185.514323 71.647135 186.523438 69.433594 C 187.5 67.285156 187.858073 65.364583 187.890625 62.890625 C 187.890625 61.360677 187.825521 60.481771 187.695312 59.667969 C 187.565104 58.854167 187.33724 58.040365 186.848958 56.673177 C 185.449219 52.604167 183.203125 48.860677 180.566406 46.061198 C 177.929688 43.261719 175.455729 41.666667 172.49349 40.885417 C 169.433594 40.104167 165.592448 40.104167 160.15625 40.950521 C 150.16276 42.480469 144.759115 42.1875 138.411458 39.160156 C 134.147135 37.141927 130.924479 34.928385 128.190104 31.640625 C 125.520833 28.385417 123.404948 24.21875 121.126302 18.457031 C 119.075521 13.313802 117.220052 9.99349 115.104167 7.779948 C 113.085938 5.598958 110.709635 4.264323 107.291667 3.352865 C 105.957031 2.994792 103.548177 2.734375 100.94401 2.669271 C 98.307292 2.604167 95.800781 2.734375 94.303385 2.994792 C 90.592448 3.74349 87.076823 5.566406 84.895833 7.779948 C 82.877604 9.830729 81.282552 12.532552 78.938802 18.424479 Z M 106.054688 55.371094 C 129.231771 58.59375 146.321615 79.231771 144.921875 102.50651 C 143.457031 127.34375 122.200521 146.419271 97.49349 144.921875 C 66.699219 143.098958 46.777344 111.751302 58.268229 83.138021 C 65.78776 64.257812 85.872396 52.571615 106.054688 55.371094 Z M 106.054688 55.371094 " transform="matrix(0.12,0,0,0.12,0,0)"/>
</g>
</svg>
