<svg width="30" height="30" viewBox="0 0 30 30" fill="none" xmlns="http://www.w3.org/2000/svg">
<path fill-rule="evenodd" clip-rule="evenodd" d="M15 30C23.2843 30 30 23.2843 30 15C30 6.71573 23.2843 0 15 0C6.71573 0 0 6.71573 0 15C0 23.2843 6.71573 30 15 30ZM12.6611 21.8965C12.971 22.2783 13.3473 22.4692 13.79 22.4692C14.2826 22.4692 14.6616 22.2673 14.9272 21.8633L22.6968 9.84375C22.7909 9.69987 22.86 9.56152 22.9043 9.42871C22.9486 9.2959 22.9707 9.16309 22.9707 9.03027C22.9707 8.70378 22.8628 8.43538 22.647 8.2251C22.4312 8.01481 22.1545 7.90967 21.8169 7.90967C21.5845 7.90967 21.3908 7.95671 21.2358 8.05078C21.0809 8.13932 20.9315 8.29427 20.7876 8.51562L13.7568 19.6553L10.1543 15.0898C9.89421 14.7633 9.57324 14.6001 9.19141 14.6001C8.85384 14.6001 8.57438 14.708 8.35303 14.9238C8.13167 15.1396 8.021 15.4136 8.021 15.7456C8.021 15.895 8.0459 16.0389 8.0957 16.1772C8.15104 16.3156 8.23958 16.4567 8.36133 16.6006L12.6611 21.8965Z" fill="#FCA326"/>
</svg>
