<svg width="45" height="45" viewBox="0 0 45 45" fill="none" xmlns="http://www.w3.org/2000/svg">
<g clip-path="url(#clip0_561_1752)">
<rect width="45" height="45" rx="22.5" fill="white"/>
<path d="M0 0H45V45H0V0Z" fill="#F0F3FA"/>
<path fill-rule="evenodd" clip-rule="evenodd" d="M10 10H35V35H10V10ZM25 13.75V12.5H32.5V13.75H30V20H27.5V13.75H25ZM17.5 17.45L19.9 12.5H22.5V20H20V15.95L18.35 19.175H16.675L15 15.95V20H12.5V12.5H15.125L17.5 17.45ZM30 30C30 30.7 29.575 31.1 28.8 31.1C27.55 31.1 27.5 30.325 27.5 29.1V28.375C27.5 27.425 27.575 26.55 28.8 26.55C29.55 26.55 30 26.6 30 27.5H32.5C32.325 25.35 30.35 25 28.8 25C28 25 27.325 25.125 26.775 25.35C26.2 25.6 25.775 26 25.45 26.55C25.15 27.075 25 27.8 25 28.65V28.85C25 29.7 25.15 30.425 25.45 30.95C25.75 31.5 26.2 31.9 26.775 32.15C27.325 32.4 28.025 32.5 28.775 32.5C30.325 32.5 32.35 32.15 32.5 30H30Z" fill="#FF0032"/>
</g>
<defs>
<clipPath id="clip0_561_1752">
<rect width="45" height="45" rx="22.5" fill="white"/>
</clipPath>
</defs>
</svg>
