<svg width="45" height="45" viewBox="0 0 45 45" fill="none" xmlns="http://www.w3.org/2000/svg">
<g clip-path="url(#clip0_561_1766)">
<rect width="45" height="45" rx="22.5" fill="white"/>
<path d="M0 0H45V45H0V0Z" fill="#393939"/>
<path d="M12.4248 12.5H37.5998V17.5H12.4248V12.5Z" fill="url(#paint0_linear_561_1766)"/>
<path d="M12.5 20H40V25H12.5V20Z" fill="url(#paint1_linear_561_1766)"/>
<path d="M13.25 27.5H40.875V32.5H13.25V27.5Z" fill="url(#paint2_linear_561_1766)"/>
<path d="M31.1001 31.9001C31.0821 32.0616 31.0065 32.2112 30.8871 32.3214C30.7677 32.4316 30.6125 32.4951 30.4501 32.5001H27.4251C27.3132 32.4979 27.2038 32.4668 27.1074 32.4098C27.011 32.3529 26.931 32.272 26.8751 32.1751L21.7501 23.7501L16.6751 32.1751C16.617 32.2757 16.5331 32.3589 16.4319 32.4161C16.3308 32.4732 16.2162 32.5022 16.1001 32.5001H13.1251C12.9627 32.4951 12.8075 32.4316 12.6881 32.3214C12.5687 32.2112 12.4931 32.0616 12.4751 31.9001L10.0001 13.2501C9.95008 12.8501 10.2501 12.4751 10.6501 12.4751H13.2751C13.6251 12.4751 13.9001 12.7251 13.9501 13.0751L15.8001 26.9001L19.6001 20.3501C19.7251 20.1501 19.9501 19.9751 20.1751 19.9751H23.4001C23.6251 19.9751 23.8251 20.1501 23.9501 20.3501L27.7751 26.9001L29.6251 13.0751C29.6477 12.9222 29.7221 12.7816 29.8358 12.677C29.9496 12.5723 30.0958 12.5099 30.2501 12.5001H32.8751C33.2751 12.5001 33.5751 12.8751 33.5251 13.2751L31.0751 31.9001H31.1001Z" fill="white"/>
</g>
<defs>
<linearGradient id="paint0_linear_561_1766" x1="16.8998" y1="15" x2="35.6748" y2="15" gradientUnits="userSpaceOnUse">
<stop offset="0.86" stop-color="#CA1A01"/>
<stop offset="1" stop-color="#CA1A01" stop-opacity="0"/>
</linearGradient>
<linearGradient id="paint1_linear_561_1766" x1="23.575" y1="22.5" x2="40" y2="22.5" gradientUnits="userSpaceOnUse">
<stop offset="0.75" stop-color="#CA1A01"/>
<stop offset="1" stop-color="#CA1A01" stop-opacity="0"/>
</linearGradient>
<linearGradient id="paint2_linear_561_1766" x1="14.975" y1="32.5" x2="38.425" y2="32.5" gradientUnits="userSpaceOnUse">
<stop offset="0.82" stop-color="#CA1A01"/>
<stop offset="0.97" stop-color="#CA1A01" stop-opacity="0"/>
</linearGradient>
<clipPath id="clip0_561_1766">
<rect width="45" height="45" rx="22.5" fill="white"/>
</clipPath>
</defs>
</svg>
