<?xml version="1.0" encoding="UTF-8"?>
<svg xmlns="http://www.w3.org/2000/svg" xmlns:xlink="http://www.w3.org/1999/xlink" width="24px" height="24px" viewBox="0 0 24 24" version="1.1">
<g id="surface1">
<path style=" stroke:none;fill-rule:nonzero;fill:rgb(52.156863%,52.156863%,52.156863%);fill-opacity:1;" d="M 6.429688 0.164062 C 3.460938 0.820312 1.175781 3.023438 0.234375 6.140625 L 0 6.925781 L 0 17.117188 L 0.234375 17.902344 C 1.132812 20.882812 3.269531 23.023438 6.09375 23.800781 C 6.796875 24 6.882812 24 11.976562 24 C 17.066406 24 17.152344 24 17.855469 23.800781 C 20.679688 23.023438 22.824219 20.871094 23.714844 17.902344 L 23.941406 17.117188 L 23.976562 13.007812 L 24 8.894531 L 21.578125 8.867188 C 19.328125 8.84375 19.125 8.824219 18.664062 8.640625 C 17.015625 8.003906 15.789062 6.558594 15.511719 4.929688 C 15.460938 4.644531 15.421875 3.414062 15.421875 2.203125 L 15.421875 0 L 11.285156 0.0078125 C 7.636719 0.0078125 7.058594 0.0351562 6.429688 0.164062 Z M 11.824219 12.167969 C 12.007812 12.34375 12.015625 12.570312 11.839844 12.753906 C 11.730469 12.875 11.3125 12.894531 8.53125 12.894531 C 5.746094 12.894531 5.328125 12.875 5.21875 12.753906 C 5.042969 12.578125 5.050781 12.378906 5.226562 12.179688 C 5.351562 12.03125 5.570312 12.023438 8.511719 12.023438 C 11.328125 12.023438 11.679688 12.039062 11.824219 12.167969 Z M 18.730469 15.296875 C 18.90625 15.472656 18.898438 15.671875 18.722656 15.871094 C 18.597656 16.019531 18.277344 16.027344 11.992188 16.027344 C 5.964844 16.027344 5.378906 16.019531 5.234375 15.882812 C 5.050781 15.707031 5.042969 15.480469 5.21875 15.296875 C 5.335938 15.175781 6.058594 15.15625 11.976562 15.15625 C 17.890625 15.15625 18.613281 15.175781 18.730469 15.296875 Z M 18.816406 18.574219 C 18.882812 18.765625 18.867188 18.851562 18.738281 18.992188 C 18.589844 19.164062 18.511719 19.164062 11.992188 19.164062 C 5.964844 19.164062 5.378906 19.15625 5.234375 19.015625 C 5.066406 18.859375 5.042969 18.703125 5.167969 18.460938 C 5.261719 18.292969 5.402344 18.292969 12 18.3125 L 18.738281 18.335938 Z M 18.816406 18.574219 "/>
<path style=" stroke:none;fill-rule:nonzero;fill:rgb(52.156863%,52.156863%,52.156863%);fill-opacity:1;" d="M 16.261719 2.40625 C 16.261719 3.414062 16.300781 4.453125 16.34375 4.714844 C 16.5625 5.890625 17.363281 7.003906 18.371094 7.527344 C 19.210938 7.960938 19.605469 8.023438 21.621094 7.996094 L 23.402344 7.972656 L 16.261719 0.566406 Z M 16.261719 2.40625 "/>
</g>
</svg>
