<?xml version="1.0" encoding="UTF-8"?>
<svg xmlns="http://www.w3.org/2000/svg" xmlns:xlink="http://www.w3.org/1999/xlink" width="24px" height="24px" viewBox="0 0 24 24" version="1.1">
<g id="surface1">
<path style="fill:none;stroke-width:10;stroke-linecap:butt;stroke-linejoin:miter;stroke:rgb(52.156863%,52.156863%,52.156863%);stroke-opacity:1;stroke-miterlimit:4;" d="M 194.986979 100 C 194.986979 152.473958 152.473958 194.986979 100 194.986979 C 47.526042 194.986979 5.013021 152.473958 5.013021 100 C 5.013021 47.526042 47.526042 5.013021 100 5.013021 C 152.473958 5.013021 194.986979 47.526042 194.986979 100 Z M 194.986979 100 " transform="matrix(0.12,0,0,0.12,0,0)"/>
<path style="fill:none;stroke-width:10;stroke-linecap:butt;stroke-linejoin:miter;stroke:rgb(52.156863%,52.156863%,52.156863%);stroke-opacity:1;stroke-miterlimit:4;" d="M 194.986979 100 C 194.986979 152.473958 152.473958 194.986979 100 194.986979 C 47.526042 194.986979 5.013021 152.473958 5.013021 100 C 5.013021 47.526042 47.526042 5.013021 100 5.013021 C 152.473958 5.013021 194.986979 47.526042 194.986979 100 Z M 194.986979 100 " transform="matrix(0.12,0,0,0.12,0,0)"/>
<path style="fill:none;stroke-width:10;stroke-linecap:butt;stroke-linejoin:miter;stroke:rgb(52.156863%,52.156863%,52.156863%);stroke-opacity:1;stroke-miterlimit:4;" d="M 12.5 137.988281 L 74.511719 86.002604 L 108.496094 121.484375 L 179.492188 51.009115 " transform="matrix(0.12,0,0,0.12,0,0)"/>
</g>
</svg>
