<svg width="150" height="150" viewBox="0 0 150 150" fill="none" xmlns="http://www.w3.org/2000/svg">
<rect width="150" height="150" rx="75" fill="#272727"/>
<path d="M71.75 36.9534C69.4062 37.3753 66.6406 38.5159 64.6094 39.8909C63.3906 40.719 61.2656 42.7815 60.2969 44.0628C59.3438 45.3284 58.1406 47.6565 57.5938 49.2971C56.4219 52.8284 56.4219 57.1878 57.5938 60.7034C58.4844 63.3909 59.8125 65.5784 61.7812 67.6253C63.9531 69.8909 66.2812 71.3753 69.1875 72.3596C72.7969 73.5784 77.125 73.6096 80.7031 72.4065C82.3438 71.8596 84.6719 70.6565 85.9375 69.7034C87.2188 68.7346 89.2812 66.6096 90.1094 65.3909C93.3281 60.6409 94.1719 54.5315 92.3594 49.1878C91.7812 47.469 90.6875 45.3753 89.7031 44.0628C88.7344 42.7815 86.6094 40.719 85.3906 39.8909C83.2969 38.4846 80.5781 37.3753 78.1562 36.9534C76.5469 36.6721 73.3125 36.6721 71.75 36.9534Z" fill="#858585"/>
<path d="M50.5937 80.2342C45.4219 81.1092 40.7969 84.5155 38.4531 89.1874C36.3594 93.3436 36.1406 98.5155 37.8906 102.875C39.5625 107.062 42.9375 110.437 47.125 112.109C47.6875 112.328 48.6875 112.672 49.3437 112.859L50.5469 113.203L74.4531 113.25C95.3125 113.281 98.5156 113.25 99.625 113.047C107.609 111.547 113.281 104.765 113.281 96.7186C113.281 92.0155 111.547 87.9217 108.187 84.6874C105.625 82.2342 102.766 80.7967 99.2969 80.2342C97.3437 79.9061 52.4844 79.9217 50.5937 80.2342Z" fill="#858585"/>
</svg>
