<svg width="30" height="30" viewBox="0 0 30 30" fill="none" xmlns="http://www.w3.org/2000/svg">
<path fill-rule="evenodd" clip-rule="evenodd" d="M15 30C23.2843 30 30 23.2843 30 15C30 6.71573 23.2843 0 15 0C6.71573 0 0 6.71573 0 15C0 23.2843 6.71573 30 15 30ZM13.9193 11.1432C13.9193 8.04189 13.936 7.95853 14.5113 7.65006C14.6613 7.5667 14.8864 7.5 15.0031 7.5C15.3283 7.5 15.7701 7.77512 15.9368 8.09191C16.0702 8.35036 16.0869 8.61713 16.0869 11.1432V13.9193H18.8631C21.9644 13.9193 22.0477 13.936 22.3562 14.5113C22.5479 14.8697 22.5479 15.1365 22.3562 15.495C22.0477 16.0702 21.9644 16.0869 18.8631 16.0869H16.0869V18.8631C16.0869 21.9644 16.0702 22.0477 15.495 22.3562C15.1365 22.5479 14.8697 22.5479 14.5113 22.3562C13.936 22.0477 13.9193 21.9644 13.9193 18.8631V16.0869H11.1432C8.61713 16.0869 8.35035 16.0702 8.09191 15.9368C7.77511 15.7701 7.5 15.3283 7.5 15.0031C7.5 14.678 7.77511 14.2361 8.09191 14.0694C8.35035 13.936 8.61713 13.9193 11.1432 13.9193H13.9193V11.1432Z" fill="#9E9E9E"/>
</svg>
