<?xml version="1.0" encoding="UTF-8"?>
<svg xmlns="http://www.w3.org/2000/svg" xmlns:xlink="http://www.w3.org/1999/xlink" width="30px" height="30px" viewBox="0 0 30 30" version="1.1">
<g id="surface1">
<path style=" stroke:none;fill-rule:evenodd;fill:rgb(61.960784%,61.960784%,61.960784%);fill-opacity:1;" d="M 15 30 C 23.285156 30 30 23.285156 30 15 C 30 6.714844 23.285156 0 15 0 C 6.714844 0 0 6.714844 0 15 C 0 23.285156 6.714844 30 15 30 Z M 13.917969 11.144531 C 13.917969 8.042969 13.9375 7.957031 14.511719 7.648438 C 14.660156 7.566406 14.886719 7.5 15.003906 7.5 C 15.328125 7.5 15.769531 7.773438 15.9375 8.09375 C 16.070312 8.351562 16.085938 8.617188 16.085938 11.144531 L 16.085938 13.917969 L 18.863281 13.917969 C 21.964844 13.917969 22.046875 13.9375 22.355469 14.511719 C 22.546875 14.871094 22.546875 15.136719 22.355469 15.496094 C 22.046875 16.070312 21.964844 16.085938 18.863281 16.085938 L 16.085938 16.085938 L 16.085938 18.863281 C 16.085938 21.964844 16.070312 22.046875 15.496094 22.355469 C 15.136719 22.546875 14.871094 22.546875 14.511719 22.355469 C 13.9375 22.046875 13.917969 21.964844 13.917969 18.863281 L 13.917969 16.085938 L 11.144531 16.085938 C 8.617188 16.085938 8.351562 16.070312 8.09375 15.9375 C 7.773438 15.769531 7.5 15.328125 7.5 15.003906 C 7.5 14.679688 7.773438 14.234375 8.09375 14.070312 C 8.351562 13.9375 8.617188 13.917969 11.144531 13.917969 L 13.917969 13.917969 Z M 13.917969 11.144531 "/>
</g>
</svg>
