<svg width="45" height="45" viewBox="0 0 45 45" fill="none" xmlns="http://www.w3.org/2000/svg">
<g clip-path="url(#clip0_561_1759)">
<rect width="45" height="45" rx="22.5" fill="white"/>
<path d="M0 0H45V45H0V0Z" fill="#FE0000"/>
<path d="M30 10H26.425V25.525C26.425 28 28.425 30 30.9 30H35V26.425H31.775C31.3042 26.425 30.8528 26.238 30.5199 25.9051C30.187 25.5722 30 25.1208 30 24.65V18.575H35V15H30V10ZM10 15H13.575V17.25C14.7 15.85 16.25 15 18 15C21.45 15 24.25 18.35 24.25 22.5C24.25 26.65 21.45 30 18 30C16.25 30 14.675 29.15 13.55 27.75V35H10V15ZM13.575 22.5C13.575 24.575 15.175 26.25 17.15 26.25C19.125 26.25 20.725 24.575 20.725 22.5C20.725 20.425 19.125 18.75 17.15 18.75C15.175 18.75 13.575 20.425 13.575 22.5Z" fill="white"/>
</g>
<defs>
<clipPath id="clip0_561_1759">
<rect width="45" height="45" rx="22.5" fill="white"/>
</clipPath>
</defs>
</svg>
