<svg width="30" height="30" viewBox="0 0 30 30" fill="none" xmlns="http://www.w3.org/2000/svg">
<g clip-path="url(#clip0_673_1895)">
<path d="M14.2969 0.0881157C13.5879 0.263897 12.9316 0.679913 12.5332 1.2014C12.3809 1.40062 11.7363 2.70726 10.8047 4.69944C9.98438 6.44554 9.29297 7.89866 9.26367 7.92796C9.24023 7.9514 7.7168 8.20921 5.88281 8.50218C4.04883 8.78929 2.44336 9.05296 2.31445 9.08812C1.34766 9.34593 0.427734 10.3127 0.146484 11.3674C0.0351562 11.7834 0.0351562 12.5393 0.146484 12.967C0.333984 13.6994 0.503906 13.928 2.03906 15.51C2.83594 16.3244 3.99609 17.5198 4.61719 18.1584L5.74219 19.3244L5.15625 22.8811C4.54102 26.6194 4.49414 27.0764 4.66406 27.6623C4.89844 28.4534 5.53711 29.2561 6.25195 29.6311C6.97266 30.0178 7.92188 30.094 8.68359 29.8303C8.86523 29.7717 10.3242 28.9866 11.9355 28.0901C13.541 27.1994 14.8828 26.467 14.9121 26.467C14.9473 26.467 16.3184 27.2053 17.959 28.1076C19.6055 29.01 21.082 29.7951 21.2402 29.8479C22.2949 30.2053 23.5371 29.8948 24.3516 29.0803C24.9609 28.4592 25.3125 27.6448 25.3125 26.8479C25.3125 26.5959 25.084 24.8909 24.7852 22.8635L24.2578 19.3244L25.3828 18.1584C26.0039 17.5198 27.1582 16.3303 27.9492 15.5159C29.4727 13.9455 29.666 13.6819 29.8535 12.9787C29.9648 12.5334 29.9648 11.801 29.8477 11.3498C29.5781 10.3069 28.8281 9.50413 27.8379 9.19945C27.627 9.13499 25.9336 8.84202 24.0879 8.55491C22.2363 8.26195 20.7188 8.01585 20.7129 8.00999C20.707 8.00413 20.1152 6.73265 19.3945 5.18577C17.6074 1.33616 17.5957 1.31858 17.1211 0.867413C16.3359 0.134991 15.293 -0.152119 14.2969 0.0881157ZM15.0352 3.03538C15.0762 3.05882 15.7559 4.47093 16.5527 6.18187C17.3496 7.88695 18.082 9.39866 18.1758 9.53929C18.5684 10.1076 19.2188 10.594 19.8633 10.7815C20.0742 10.8459 21.6973 11.1213 23.4668 11.3967C25.2422 11.6721 26.748 11.9241 26.8242 11.9534C26.8945 11.9826 26.9531 12.0588 26.9531 12.1116C26.9531 12.1701 25.8691 13.342 24.4922 14.7659C23.1387 16.1662 21.9316 17.4612 21.8145 17.6369C21.4746 18.135 21.3164 18.633 21.2871 19.2776C21.2695 19.7756 21.3223 20.1916 21.8438 23.2912C22.418 26.6955 22.4473 26.9534 22.2539 26.9534C22.2188 26.9534 20.8535 26.2326 19.2246 25.3537C17.5957 24.4807 16.0781 23.6955 15.8496 23.6194C15.3047 23.4319 14.4434 23.426 13.8984 23.6018C13.6875 23.6721 12.3223 24.4045 10.6582 25.342C9.07617 26.2385 7.73438 26.9768 7.67578 26.9944C7.42383 27.0588 7.44141 26.8948 8.03906 23.3205C8.56055 20.1682 8.61328 19.7756 8.5957 19.2483C8.56641 18.5686 8.44922 18.1584 8.14453 17.7131C8.0332 17.5432 6.83203 16.26 5.47852 14.8537C4.125 13.4534 3.01172 12.2698 3.00586 12.2287C2.95898 12.0237 3.11133 11.9944 6.36914 11.4787C8.16797 11.1975 9.79688 10.9221 9.99023 10.8694C10.7402 10.6643 11.4609 10.0842 11.8477 9.37523C11.959 9.16429 12.6797 7.64085 13.4531 5.98851C14.2207 4.34202 14.877 2.98851 14.9121 2.98851C14.9414 2.98851 15 3.01194 15.0352 3.03538Z" fill="#9E9E9E"/>
</g>
<defs>
<clipPath id="clip0_673_1895">
<rect width="30" height="30" fill="white"/>
</clipPath>
</defs>
</svg>
