<svg width="45" height="45" viewBox="0 0 45 45" fill="none" xmlns="http://www.w3.org/2000/svg">
<g clip-path="url(#clip0_561_1762)">
<rect width="45" height="45" rx="22.5" fill="white"/>
<path d="M0 0H45V45H0V0Z" fill="#FFCA30"/>
<path d="M29.5825 26.0075L27.0825 28.2975V13.3325H29.5825V26.0075ZM32.5 16.6675V23.3325L30 25.625V16.6675H32.5ZM23.75 7.5H21.25V20H23.75V7.5ZM15.4175 26.0075L17.9175 28.2975V13.3325H15.4175V26.0075ZM15 25.625V16.6675H12.5V23.3325L15 25.625ZM18.3325 23.3325V10.8325H20.8325V23.3325H18.3325ZM24.1675 23.3325V10.8325H26.6675V23.3325H24.1675Z" fill="black"/>
<path d="M21.25 37.5V20.835H23.75V37.5H21.25ZM18.3325 37.5V24.1675H20.8325V37.5H18.3325ZM24.1675 24.1675V37.5H26.6675V24.1675H24.1675Z" fill="white"/>
</g>
<defs>
<clipPath id="clip0_561_1762">
<rect width="45" height="45" rx="22.5" fill="white"/>
</clipPath>
</defs>
</svg>
