<svg width="45" height="45" viewBox="0 0 45 45" fill="none" xmlns="http://www.w3.org/2000/svg">
<g clip-path="url(#clip0_561_1749)">
<rect width="45" height="45" rx="22.5" fill="white"/>
<path d="M0 0H45V45H0V0Z" fill="#E6000E"/>
<path d="M10 17.475C10 13.3825 13.48 9.98753 17.555 10H35V12.5H17.28C15.26 12.5 12.5 15.045 12.5 17.125V23.85C12.3225 25.5425 12.35 26.9075 10.68 27.16L10 27.185V17.475ZM10 35V32.5H27.97C29.9475 32.5025 32.5025 30.0325 32.5 28.025V21.475C32.5 19.675 32.52 18.1125 34.3225 17.84L35 17.8125V27.5275C35 31.615 31.52 35.01 27.445 35H10ZM25 27.5V22.4225L22.5 24.845L20 22.4225V27.5H17.5V17.5H20L22.5 20.9375L25 17.5H27.5V27.5H25Z" fill="white"/>
</g>
<defs>
<clipPath id="clip0_561_1749">
<rect width="45" height="45" rx="22.5" fill="white"/>
</clipPath>
</defs>
</svg>
