<svg width="8" height="12" viewBox="0 0 8 12" fill="none" xmlns="http://www.w3.org/2000/svg">
<path d="M7.62737 6.00684C7.62737 6.15072 7.5997 6.28353 7.54437 6.40527C7.48903 6.52702 7.40325 6.646 7.28704 6.76221L2.31487 11.6846C2.13226 11.8672 1.9109 11.9585 1.65081 11.9585C1.37965 11.9585 1.15 11.8672 0.961846 11.6846C0.773695 11.4964 0.67962 11.2695 0.67962 11.0039C0.67962 10.7383 0.781996 10.5031 0.986749 10.2983L5.34466 6.00684L0.986749 1.71533C0.781996 1.51058 0.67962 1.27539 0.67962 1.00977C0.67962 0.744141 0.773695 0.52002 0.961846 0.337402C1.15 0.149251 1.37965 0.0551758 1.65081 0.0551758C1.9109 0.0551758 2.13226 0.146484 2.31487 0.329102L7.28704 5.25146C7.51393 5.46729 7.62737 5.71908 7.62737 6.00684Z" fill="#858585"/>
</svg>
