<?xml version="1.0" encoding="UTF-8"?>
<svg xmlns="http://www.w3.org/2000/svg" xmlns:xlink="http://www.w3.org/1999/xlink" width="24px" height="24px" viewBox="0 0 24 24" version="1.1">
<g id="surface1">
<path style=" stroke:none;fill-rule:nonzero;fill:rgb(52.156863%,52.156863%,52.156863%);fill-opacity:1;" d="M 6.957031 0.0898438 C 6.289062 0.203125 5.289062 0.570312 4.582031 0.941406 C 2.664062 1.972656 1.144531 3.808594 0.457031 5.929688 C 0.0742188 7.121094 0.0507812 7.382812 0.0117188 11.363281 C -0.0429688 16.535156 0.0507812 17.355469 0.878906 19.125 C 1.5 20.449219 2.367188 21.539062 3.496094 22.417969 C 4.074219 22.871094 5.328125 23.503906 6.1875 23.773438 L 6.886719 24 L 17.023438 24 L 17.683594 23.8125 C 18.542969 23.5625 19.929688 22.863281 20.570312 22.351562 C 21.699219 21.457031 22.488281 20.457031 23.101562 19.125 C 23.898438 17.429688 24 16.65625 24 11.980469 L 24 8.570312 L 19.890625 4.289062 L 15.777344 0 L 11.566406 0.0078125 C 9.25 0.015625 7.175781 0.046875 6.957031 0.0898438 Z M 15.191406 2.867188 C 15.191406 3.996094 15.230469 5.140625 15.277344 5.410156 C 15.503906 6.734375 16.453125 8.015625 17.632812 8.601562 C 17.980469 8.78125 18.457031 8.957031 18.683594 9.007812 C 18.917969 9.054688 19.960938 9.097656 21.125 9.097656 L 23.148438 9.097656 L 23.125 12.929688 L 23.09375 16.773438 L 22.886719 17.503906 C 22.058594 20.265625 20.070312 22.277344 17.453125 23 C 16.796875 23.1875 16.71875 23.1875 11.996094 23.1875 C 7.300781 23.1875 7.183594 23.1875 6.5625 23.007812 C 3.910156 22.269531 1.9375 20.28125 1.105469 17.503906 L 0.886719 16.773438 L 0.886719 7.269531 L 1.105469 6.539062 C 1.773438 4.320312 3.132812 2.613281 5.015625 1.640625 C 6.53125 0.859375 6.777344 0.828125 11.355469 0.820312 L 15.191406 0.8125 Z M 19.363281 4.875 L 22.636719 8.285156 L 20.921875 8.285156 C 19.011719 8.285156 18.613281 8.21875 17.824219 7.78125 C 16.96875 7.308594 16.234375 6.246094 16.046875 5.207031 C 15.953125 4.703125 15.9375 1.460938 16.03125 1.460938 C 16.0625 1.460938 17.5625 2.996094 19.363281 4.875 Z M 19.363281 4.875 "/>
<path style=" stroke:none;fill-rule:nonzero;fill:rgb(52.156863%,52.156863%,52.156863%);fill-opacity:1;" d="M 5.734375 12.167969 C 5.570312 12.351562 5.5625 12.539062 5.726562 12.703125 C 5.828125 12.816406 6.21875 12.832031 8.796875 12.832031 C 11.378906 12.832031 11.769531 12.816406 11.871094 12.703125 C 12.035156 12.53125 12.027344 12.320312 11.855469 12.160156 C 11.722656 12.035156 11.394531 12.019531 8.78125 12.019531 C 6.054688 12.019531 5.851562 12.027344 5.734375 12.167969 Z M 5.734375 12.167969 "/>
<path style=" stroke:none;fill-rule:nonzero;fill:rgb(52.156863%,52.156863%,52.156863%);fill-opacity:1;" d="M 5.726562 15.074219 C 5.5625 15.246094 5.570312 15.457031 5.742188 15.617188 C 5.875 15.75 6.421875 15.757812 12.011719 15.757812 C 17.839844 15.757812 18.136719 15.75 18.253906 15.609375 C 18.417969 15.421875 18.425781 15.238281 18.261719 15.074219 C 18.152344 14.960938 17.484375 14.945312 11.996094 14.945312 C 6.507812 14.945312 5.835938 14.960938 5.726562 15.074219 Z M 5.726562 15.074219 "/>
<path style=" stroke:none;fill-rule:nonzero;fill:rgb(52.156863%,52.156863%,52.156863%);fill-opacity:1;" d="M 5.679688 18.023438 C 5.5625 18.25 5.585938 18.394531 5.742188 18.542969 C 5.875 18.671875 6.421875 18.679688 12.011719 18.679688 C 18.058594 18.679688 18.128906 18.679688 18.269531 18.519531 C 18.386719 18.386719 18.402344 18.304688 18.339844 18.128906 L 18.269531 17.910156 L 12.019531 17.882812 C 5.898438 17.867188 5.765625 17.867188 5.679688 18.023438 Z M 5.679688 18.023438 "/>
</g>
</svg>
