<svg width="45" height="45" viewBox="0 0 45 45" fill="none" xmlns="http://www.w3.org/2000/svg">
<g clip-path="url(#clip0_561_1755)">
<rect width="45" height="45" rx="22.5" fill="white"/>
<path d="M0 0H45V45H0V0Z" fill="#F0F3FA"/>
<path d="M10.955 30.1999L23.5175 26.9449C24.0389 26.81 24.5871 26.8179 25.1044 26.9679C25.6217 27.1179 26.0891 27.4044 26.4575 27.7974L30.865 32.4999H9.625L10.955 30.1999ZM24.7 13.6099L35.605 32.4999H32.215L23.675 22.8199C23.3498 22.4517 23.1201 22.0093 23.0059 21.5315C22.8917 21.0538 22.8965 20.5553 23.02 20.0799L24.7 13.6099Z" fill="#F8AB37"/>
<path d="M22.6149 10L23.9649 12.3375L20.0924 25.28C19.9462 25.7676 19.6784 26.2101 19.314 26.5657C18.9497 26.9212 18.5009 27.1782 18.0099 27.3125L11.6099 29.0625L22.6149 10Z" fill="#A8A9AB"/>
</g>
<defs>
<clipPath id="clip0_561_1755">
<rect width="45" height="45" rx="22.5" fill="white"/>
</clipPath>
</defs>
</svg>
