<svg width="45" height="45" viewBox="0 0 45 45" fill="none" xmlns="http://www.w3.org/2000/svg">
<g clip-path="url(#clip0_561_1746)">
<rect width="45" height="45" rx="22.5" fill="white"/>
<path d="M0 0H45V45H0V0Z" fill="#F0F3FA"/>
<path fill-rule="evenodd" clip-rule="evenodd" d="M40 22.5C40 26.65 32.175 30 22.5 30C12.825 30 5 26.65 5 22.5C5 18.35 12.825 15 22.5 15C32.175 15 40 18.35 40 22.5ZM38.15 22.5C38.15 26.2 31.15 29.2 22.5 29.2C13.85 29.2 6.85 26.2 6.85 22.5C6.85 18.8 13.85 15.8 22.5 15.8C31.15 15.8 38.15 18.8 38.15 22.5ZM30.525 21.25V23.675C30.525 24.425 30.925 25 31.525 25H31.95C32.2 25 32.7 24.95 32.875 24.825V23.575C32.7126 23.6616 32.5336 23.7127 32.35 23.725C32.1 23.725 31.975 23.575 31.975 23.3V21.25H32.875V20H31.975V18.25L30.525 19.25V20H30V21.25H30.5H30.525ZM17.5 20H18.75V21.05C18.975 20.425 19.45 20 20.025 20C20.6 20 21.05 20.425 21.275 21.025C21.5 20.425 21.975 20.025 22.55 20.025C23.325 20.025 23.95 20.775 23.95 21.775V25H22.5V21.925C22.5 21.625 22.25 21.4 22 21.4C21.65 21.4 21.425 21.75 21.4 22.15V25H19.95V22C19.95 21.7 19.7 21.45 19.475 21.45C19.125 21.45 18.85 21.8 18.85 22.275V25H17.5V20ZM11.925 21.45L13.525 21.65C13.675 21.475 14.025 21.125 14.45 21.125C14.95 21.125 15.325 21.675 14.525 21.925C14.3356 21.9765 14.1437 22.0182 13.95 22.05C13.075 22.225 11.95 22.45 11.95 23.65C11.95 24.875 13.05 25.05 13.6 25C13.975 25 14.775 24.825 15.175 24.25L15.425 25H16.925V24.75C16.7244 24.5228 16.6172 24.228 16.625 23.925V21.675C16.625 20.75 15.975 20 15.125 20H13.5C13.2167 20.0095 12.9418 20.099 12.7073 20.2583C12.4728 20.4176 12.2882 20.6401 12.175 20.9L11.925 21.45ZM15.025 22.7V22.825C15.025 23.15 14.9 23.475 14.675 23.7L14.525 23.9C14.4763 23.956 14.4157 24.0005 14.3476 24.0302C14.2796 24.0599 14.2058 24.0741 14.1316 24.0717C14.0573 24.0693 13.9846 24.0504 13.9186 24.0164C13.8526 23.9823 13.795 23.9341 13.75 23.875C13.6978 23.8064 13.6624 23.7264 13.6468 23.6416C13.6312 23.5568 13.6357 23.4695 13.6601 23.3868C13.6844 23.3041 13.7278 23.2282 13.7869 23.1654C13.8459 23.1025 13.9189 23.0544 14 23.025L15 22.7H15.025ZM29.4 22.925L29.425 22.5C29.425 21.125 28.375 20 27.05 20C26.4046 20.0196 25.793 20.2933 25.3482 20.7614C24.9035 21.2296 24.6615 21.8544 24.675 22.5C24.675 24.025 25.75 25 27.05 25C28 25 28.8 24.625 29.2 23.75H27.5C27.3744 23.8769 27.2036 23.9488 27.025 23.95C26.6 23.95 26.275 23.525 26.175 22.925H29.375H29.4ZM26.25 22.075C26.4 21.625 26.7 21.325 27.05 21.325C27.4 21.325 27.725 21.625 27.85 22.075H26.25Z" fill="#DA251D"/>
</g>
<defs>
<clipPath id="clip0_561_1746">
<rect width="45" height="45" rx="22.5" fill="white"/>
</clipPath>
</defs>
</svg>
