<?xml version="1.0" encoding="UTF-8"?>
<svg xmlns="http://www.w3.org/2000/svg" xmlns:xlink="http://www.w3.org/1999/xlink" width="150px" height="150px" viewBox="0 0 150 150" version="1.1">
<g id="surface1">
<path style=" stroke:none;fill-rule:nonzero;fill:rgb(80.392157%,80.392157%,80.392157%);fill-opacity:1;" d="M 75 0.496094 C 116.148438 0.496094 149.503906 33.851562 149.503906 75 C 149.503906 116.148438 116.148438 149.503906 75 149.503906 C 33.851562 149.503906 0.496094 116.148438 0.496094 75 C 0.496094 33.851562 33.851562 0.496094 75 0.496094 Z M 75 0.496094 "/>
<path style=" stroke:none;fill-rule:nonzero;fill:rgb(23.529412%,23.529412%,23.529412%);fill-opacity:1;" d="M 56.855469 41.574219 C 53.46875 42.488281 50.679688 44.996094 49.53125 48.132812 C 49.332031 48.683594 47.953125 53.796875 46.460938 59.507812 L 43.769531 69.886719 L 40.367188 70.320312 C 38.507812 70.550781 36.8125 70.832031 36.613281 70.933594 C 36 71.265625 35.367188 72.246094 35.285156 73.007812 C 35.167969 73.957031 35.550781 74.785156 36.332031 75.382812 C 37.128906 75.996094 37.757812 75.996094 42.875 75.398438 C 65.273438 72.757812 85.613281 72.808594 108.796875 75.566406 C 112.449219 75.996094 112.546875 75.996094 113.164062 75.699219 C 115.023438 74.820312 115.289062 72.425781 113.660156 71.183594 C 113.144531 70.785156 112.765625 70.699219 109.824219 70.335938 C 108.03125 70.121094 106.503906 69.886719 106.453125 69.820312 C 106.40625 69.769531 105.140625 65.054688 103.664062 59.34375 C 102.167969 53.648438 100.808594 48.566406 100.609375 48.050781 C 99.046875 43.832031 94.664062 41.011719 90.132812 41.292969 C 88.820312 41.375 87.757812 41.660156 81.863281 43.46875 L 75.105469 45.5625 L 68.328125 43.46875 C 61.820312 41.460938 61.488281 41.375 59.8125 41.308594 C 58.433594 41.261719 57.816406 41.308594 56.855469 41.574219 Z M 56.855469 41.574219 "/>
<path style=" stroke:none;fill-rule:nonzero;fill:rgb(23.529412%,23.529412%,23.529412%);fill-opacity:1;" d="M 50.925781 80.78125 C 49.132812 81.210938 46.527344 82.539062 45.164062 83.703125 C 42.941406 85.613281 41.261719 88.234375 40.53125 90.976562 C 40.019531 92.886719 40.019531 96.238281 40.53125 98.117188 C 41.910156 103.179688 45.714844 106.984375 50.777344 108.34375 C 52.488281 108.808594 55.691406 108.859375 57.386719 108.445312 C 60.292969 107.730469 62.203125 106.632812 64.292969 104.523438 C 66.402344 102.382812 67.367188 100.6875 68.0625 97.917969 C 68.230469 97.300781 68.363281 96.769531 68.378906 96.738281 C 68.378906 96.71875 69.027344 96.570312 69.789062 96.4375 C 71.933594 96.023438 77.378906 95.941406 79.71875 96.273438 C 80.765625 96.421875 81.679688 96.585938 81.730469 96.652344 C 81.796875 96.738281 81.945312 97.234375 82.046875 97.785156 C 82.890625 101.816406 85.929688 105.539062 89.914062 107.429688 C 91.925781 108.378906 93.453125 108.710938 95.925781 108.710938 C 98.535156 108.710938 99.976562 108.359375 102.253906 107.230469 C 105.824219 105.472656 108.613281 102.035156 109.660156 98.117188 C 110.175781 96.171875 110.175781 93 109.644531 91.058594 C 107.949219 84.730469 102.402344 80.429688 95.945312 80.429688 C 94.929688 80.429688 93.617188 80.546875 93.019531 80.664062 C 90.429688 81.210938 87.839844 82.605469 85.914062 84.464844 C 84.636719 85.710938 83.175781 88.003906 82.542969 89.761719 C 82.078125 91.074219 81.960938 91.242188 81.664062 91.15625 C 79.671875 90.675781 72.214844 90.625 69.441406 91.089844 L 68.195312 91.308594 L 67.664062 89.847656 C 66.652344 87.007812 64.445312 84.234375 61.96875 82.621094 C 60.722656 81.808594 58.714844 80.996094 57.152344 80.664062 C 55.578125 80.332031 52.539062 80.382812 50.925781 80.78125 Z M 50.925781 80.78125 "/>
</g>
</svg>
