<svg width="150" height="150" viewBox="0 0 150 150" fill="none" xmlns="http://www.w3.org/2000/svg">
<rect width="150" height="150" rx="75" fill="#272727"/>
<path d="M56.7343 41.3526C53.3243 42.272 50.5161 44.796 49.3627 47.9553C49.1621 48.5069 47.7747 53.6553 46.2703 59.4055L43.5623 69.8528L40.1356 70.2874C38.2635 70.5215 36.5585 70.8056 36.3579 70.9059C35.7394 71.2402 35.1042 72.2265 35.0206 72.9954C34.9036 73.9482 35.2881 74.784 36.0737 75.3857C36.8761 76.0042 37.5113 76.0042 42.6597 75.4024C65.2092 72.7446 85.6859 72.7948 109.021 75.5696C112.698 76.0042 112.799 76.0042 113.417 75.7033C115.289 74.8174 115.557 72.4103 113.919 71.1566C113.4 70.7555 113.016 70.6719 110.057 70.3041C108.252 70.0868 106.714 69.8528 106.664 69.786C106.614 69.7358 105.343 64.9886 103.856 59.2384C102.351 53.5049 100.981 48.3899 100.78 47.8717C99.2088 43.6259 94.7959 40.7843 90.2325 41.0684C88.912 41.152 87.8422 41.4362 81.9081 43.2582L75.1048 45.3644L68.2848 43.2582C61.7323 41.2356 61.398 41.152 59.7097 41.0851C58.3223 41.035 57.7038 41.0851 56.7343 41.3526Z" fill="#858585"/>
<path d="M50.7668 80.8184C48.9615 81.253 46.3372 82.5902 44.9665 83.7603C42.7266 85.6826 41.0383 88.3237 40.3028 91.0818C39.7846 93.0041 39.7846 96.3807 40.3028 98.2696C41.6902 103.368 45.5181 107.196 50.6164 108.566C52.3381 109.034 55.5642 109.085 57.2692 108.667C60.1945 107.948 62.1168 106.845 64.223 104.722C66.3458 102.565 67.3154 100.86 68.0174 98.069C68.1846 97.4505 68.3183 96.9156 68.335 96.8821C68.335 96.8654 68.9869 96.715 69.7558 96.5813C71.9122 96.1634 77.3949 96.0798 79.7518 96.4141C80.8049 96.5646 81.7243 96.7317 81.7744 96.7986C81.8413 96.8821 81.9917 97.3836 82.092 97.9352C82.9445 101.997 86.0035 105.741 90.0152 107.647C92.0378 108.6 93.5757 108.934 96.0663 108.934C98.6907 108.934 100.145 108.583 102.435 107.446C106.029 105.675 108.837 102.214 109.89 98.2696C110.408 96.3138 110.408 93.1211 109.873 91.1654C108.168 84.7967 102.585 80.4674 96.083 80.4674C95.0634 80.4674 93.7428 80.5844 93.1411 80.7014C90.5334 81.253 87.9258 82.6571 85.9868 84.5293C84.6997 85.7829 83.2287 88.0897 82.5935 89.8616C82.1255 91.1821 82.0084 91.3493 81.7076 91.2657C79.7017 90.7809 72.1963 90.7308 69.4048 91.1988L68.1511 91.4161L67.6162 89.9451C66.5966 87.0868 64.3734 84.2952 61.8828 82.6738C60.6291 81.8548 58.6065 81.0357 57.0352 80.7014C55.4472 80.3671 52.3883 80.4172 50.7668 80.8184Z" fill="#858585"/>
</svg>
