<?xml version="1.0" encoding="UTF-8"?>
<svg xmlns="http://www.w3.org/2000/svg" xmlns:xlink="http://www.w3.org/1999/xlink" width="150px" height="150px" viewBox="0 0 150 150" version="1.1">
<g id="surface1">
<path style=" stroke:none;fill-rule:nonzero;fill:rgb(15.294118%,15.294118%,15.294118%);fill-opacity:1;" d="M 75 0 C 116.421875 0 150 33.578125 150 75 C 150 116.421875 116.421875 150 75 150 C 33.578125 150 0 116.421875 0 75 C 0 33.578125 33.578125 0 75 0 Z M 75 0 "/>
<path style=" stroke:none;fill-rule:nonzero;fill:rgb(52.156863%,52.156863%,52.156863%);fill-opacity:1;" d="M 56.734375 41.351562 C 53.324219 42.273438 50.515625 44.796875 49.363281 47.957031 C 49.160156 48.507812 47.773438 53.65625 46.269531 59.40625 L 43.5625 69.851562 L 40.136719 70.289062 C 38.261719 70.523438 36.558594 70.804688 36.359375 70.90625 C 35.738281 71.238281 35.105469 72.226562 35.019531 72.996094 C 34.902344 73.949219 35.289062 74.785156 36.074219 75.386719 C 36.875 76.003906 37.511719 76.003906 42.660156 75.402344 C 65.210938 72.746094 85.6875 72.792969 109.019531 75.570312 C 112.699219 76.003906 112.800781 76.003906 113.417969 75.703125 C 115.289062 74.816406 115.558594 72.410156 113.917969 71.15625 C 113.398438 70.753906 113.015625 70.671875 110.058594 70.304688 C 108.253906 70.085938 106.714844 69.851562 106.664062 69.785156 C 106.613281 69.734375 105.34375 64.988281 103.855469 59.238281 C 102.351562 53.503906 100.980469 48.390625 100.78125 47.871094 C 99.207031 43.625 94.796875 40.785156 90.234375 41.070312 C 88.910156 41.152344 87.84375 41.4375 81.90625 43.257812 L 75.105469 45.363281 L 68.285156 43.257812 C 61.730469 41.234375 61.398438 41.152344 59.710938 41.085938 C 58.324219 41.035156 57.703125 41.085938 56.734375 41.351562 Z M 56.734375 41.351562 "/>
<path style=" stroke:none;fill-rule:nonzero;fill:rgb(52.156863%,52.156863%,52.156863%);fill-opacity:1;" d="M 50.765625 80.820312 C 48.960938 81.253906 46.335938 82.589844 44.964844 83.761719 C 42.726562 85.683594 41.039062 88.324219 40.304688 91.082031 C 39.785156 93.003906 39.785156 96.378906 40.304688 98.269531 C 41.691406 103.367188 45.519531 107.195312 50.617188 108.566406 C 52.339844 109.035156 55.5625 109.085938 57.269531 108.667969 C 60.195312 107.949219 62.117188 106.84375 64.222656 104.722656 C 66.347656 102.566406 67.316406 100.859375 68.015625 98.070312 C 68.183594 97.449219 68.316406 96.914062 68.335938 96.882812 C 68.335938 96.867188 68.988281 96.714844 69.753906 96.582031 C 71.914062 96.164062 77.394531 96.078125 79.75 96.414062 C 80.804688 96.566406 81.722656 96.730469 81.773438 96.796875 C 81.839844 96.882812 81.992188 97.382812 82.09375 97.933594 C 82.945312 101.996094 86.003906 105.742188 90.015625 107.648438 C 92.039062 108.601562 93.574219 108.933594 96.066406 108.933594 C 98.691406 108.933594 100.144531 108.582031 102.433594 107.445312 C 106.027344 105.675781 108.835938 102.214844 109.890625 98.269531 C 110.40625 96.3125 110.40625 93.121094 109.871094 91.164062 C 108.167969 84.796875 102.585938 80.46875 96.082031 80.46875 C 95.0625 80.46875 93.742188 80.585938 93.140625 80.703125 C 90.535156 81.253906 87.925781 82.65625 85.988281 84.53125 C 84.699219 85.78125 83.230469 88.089844 82.59375 89.863281 C 82.125 91.183594 82.007812 91.347656 81.707031 91.265625 C 79.703125 90.78125 72.195312 90.730469 69.40625 91.199219 L 68.152344 91.417969 L 67.617188 89.945312 C 66.597656 87.085938 64.375 84.296875 61.882812 82.671875 C 60.628906 81.855469 58.605469 81.035156 57.035156 80.703125 C 55.445312 80.367188 52.386719 80.417969 50.765625 80.820312 Z M 50.765625 80.820312 "/>
</g>
</svg>
