<?xml version="1.0" encoding="UTF-8"?>
<svg xmlns="http://www.w3.org/2000/svg" xmlns:xlink="http://www.w3.org/1999/xlink" width="22px" height="24px" viewBox="0 0 22 24" version="1.1">
<g id="surface1">
<path style="fill-rule:nonzero;fill:rgb(52.156863%,52.156863%,52.156863%);fill-opacity:1;stroke-width:5;stroke-linecap:butt;stroke-linejoin:miter;stroke:rgb(52.156863%,52.156863%,52.156863%);stroke-opacity:1;stroke-miterlimit:4;" d="M 69.930398 18.424479 C 66.020241 28.190104 63.04723 32.682292 57.133523 36.588542 C 53.191051 39.160156 49.668679 40.78776 45.5 41.471354 C 41.363636 42.122396 36.807173 41.829427 30.828835 40.917969 C 22.620739 39.648438 17.611861 40.397135 14.186435 42.708333 C 10.308594 45.279948 6.236861 50.813802 4.168679 56.608073 L 4.168679 56.640625 C 3.651634 58.072917 3.425426 58.854167 3.296165 59.635417 C 3.166903 60.449219 3.102273 61.295573 3.102273 62.890625 C 3.134588 65.397135 3.490057 67.317708 4.459517 69.433594 C 5.461293 71.679688 7.174006 74.186198 10.017756 77.766927 C 13.443182 82.063802 15.802202 85.546875 17.256392 89.029948 C 18.742898 92.578125 19.292259 95.963542 19.292259 100 C 19.292259 103.808594 18.807528 107.03125 17.450284 110.351563 C 16.15767 113.671875 14.057173 116.927083 11.019531 120.898438 C 7.303267 125.813802 5.364347 128.548177 4.330256 130.729167 C 3.360795 132.747396 3.134588 134.309896 3.102273 137.109375 C 3.102273 138.671875 3.134588 139.550781 3.296165 140.332031 C 3.425426 141.113281 3.651634 141.927083 4.136364 143.294271 C 5.590554 147.395833 7.820313 151.139323 10.437855 153.938802 L 10.437855 153.971354 C 13.055398 156.738281 15.511364 158.333333 18.484375 159.114583 C 21.522017 159.895833 25.367543 159.895833 30.828835 159.049479 C 36.839489 158.138021 41.395952 157.845052 45.532315 158.528646 C 49.700994 159.21224 53.191051 160.839844 57.133523 163.411458 C 63.04723 167.317708 66.020241 171.809896 69.930398 181.575521 C 73.226562 189.84375 75.650213 192.903646 79.560369 194.921875 L 79.560369 194.954427 C 82.46875 196.516927 86.475852 197.395833 90.612216 197.460938 C 94.780895 197.49349 98.820313 196.744792 101.793324 195.247396 C 104.087713 194.108073 105.768111 192.80599 107.254616 190.852865 C 108.838068 188.802083 110.324574 185.9375 112.069602 181.575521 L 112.069602 181.542969 C 114.816406 174.804688 116.302912 171.842448 118.791193 168.815104 C 122.572088 164.127604 129.584517 159.960938 135.789062 158.658854 C 139.602273 157.845052 144.449574 158.007812 151.138849 159.049479 C 156.632457 159.895833 160.445668 159.895833 163.48331 159.114583 C 166.456321 158.333333 168.912287 156.738281 171.562145 153.938802 C 174.179688 151.139323 176.441761 147.395833 177.863636 143.326823 C 178.348366 141.959635 178.574574 141.145833 178.703835 140.332031 C 178.833097 139.518229 178.897727 138.639323 178.897727 137.109375 C 178.865412 134.635417 178.509943 132.714844 177.540483 130.566406 C 176.538707 128.352865 174.825994 125.813802 171.982244 122.233073 C 168.524503 117.936198 166.197798 114.453125 164.711293 110.970052 C 163.224787 107.454427 162.707741 104.036458 162.707741 100 C 162.707741 95.963542 163.224787 92.545573 164.711293 89.029948 C 166.197798 85.546875 168.524503 82.063802 171.982244 77.766927 C 174.825994 74.186198 176.538707 71.647135 177.540483 69.433594 C 178.509943 67.285156 178.865412 65.364583 178.897727 62.890625 C 178.897727 61.360677 178.833097 60.481771 178.703835 59.667969 C 178.574574 58.854167 178.348366 58.040365 177.863636 56.673177 C 176.441761 52.604167 174.179688 48.860677 171.562145 46.061198 C 168.912287 43.261719 166.456321 41.666667 163.48331 40.885417 C 160.413352 40.104167 156.600142 40.104167 151.138849 40.950521 C 141.153409 42.480469 135.756747 42.1875 129.42294 39.160156 C 125.157315 37.141927 121.925781 34.928385 119.178977 31.640625 C 116.496804 28.385417 114.396307 24.21875 112.101918 18.457031 C 110.066051 13.313802 108.224077 9.99349 106.12358 7.779948 C 104.087713 5.598958 101.696378 4.264323 98.270952 3.352865 C 96.978338 2.994792 94.554688 2.734375 91.937145 2.669271 C 89.319602 2.604167 86.799006 2.734375 85.3125 2.994792 C 81.596236 3.74349 78.073864 5.566406 75.908736 7.779948 C 73.872869 9.830729 72.257102 12.532552 69.930398 18.424479 Z M 97.042969 55.371094 C 120.245384 58.59375 137.307884 79.231771 135.918324 102.50651 C 134.464134 127.34375 113.200639 146.419271 88.511719 144.921875 C 57.715199 143.098958 37.776634 111.751302 49.280895 83.138021 C 56.810369 64.257812 76.878196 52.571615 97.042969 55.371094 Z M 97.042969 55.371094 " transform="matrix(0.120879,0,0,0.12,0,0)"/>
</g>
</svg>
